# xmcd CD database file
#
# Track frame offsets:
#	150
#	14715
#	28387
#	47595
#	67322
#	85600
#	98717
#	111700
#	123285
#	139365
#	151092
#	159645
#	173392
#	186360
#	207185
#	223680
#	234750
#	248482
#	260420
#	273325
#	287552
#	301792
#	304520
#	319717
#	322487
#	337327
#
# Disc length: 4616 seconds
#
# Revision: 0
# Processed by: cddbd v1.5.2PL0 Copyright (c) Steve Scherf et al.
# Submitted via: CDex 1.70beta2
#
DISCID=7e12061a
DTITLE=Cash Johnny - The Hippest Grand-Dad Around
DYEAR=1995
DGENRE=Country
TTITLE0=Folsom Prison Blues
TTITLE1=Get Rhythm
TTITLE2=Sunday Morning Coming Down
TTITLE3=Ghistriders In The Sky
TTITLE4=Oh Bury Me Not On The Lone Prairie
TTITLE5=Ring Of Fire
TTITLE6=Bottom Of A Mountain
TTITLE7=Dark As A Dungeon
TTITLE8=Nobody´s Darlng But Mine
TTITLE9=I Walk The Line
TTITLE10=Guess Things Happen That Way
TTITLE11=There you Go
TTITLE12=Why Me Lord
TTITLE13=Orange Blossom Special
TTITLE14=Bird On The Wire
TTITLE15=Dela´s Gone
TTITLE16=Tennessee Stud
TTITLE17=The Beast In Me
TTITLE18=Redemption
TTITLE19=Jackson (w. June Carter)
TTITLE20=If I Were A Carpenter (w. June Carter)
TTITLE21=Tune
TTITLE22=Doin´ My Time
TTITLE23=Tune
TTITLE24=Ballad Of Ira Hayes
TTITLE25=The Next Time I´m In Town
EXTD=YEAR: 1995
EXTT0=
EXTT1=
EXTT2=
EXTT3=
EXTT4=
EXTT5=
EXTT6=
EXTT7=
EXTT8=
EXTT9=
EXTT10=
EXTT11=
EXTT12=
EXTT13=
EXTT14=
EXTT15=
EXTT16=
EXTT17=
EXTT18=
EXTT19=
EXTT20=
EXTT21=
EXTT22=
EXTT23=
EXTT24=
EXTT25=
PLAYORDER=
